<?xml version="1.0" standalone="no"?>
<!DOCTYPE svg PUBLIC "-//W3C//DTD SVG 20010904//EN"
 "http://www.w3.org/TR/2001/REC-SVG-20010904/DTD/svg10.dtd">
<svg version="1.0" xmlns="http://www.w3.org/2000/svg"
 width="300.000000pt" height="293.000000pt" viewBox="0 0 300.000000 293.000000"
 preserveAspectRatio="xMidYMid meet">
<metadata>
Created by potrace 1.10, written by Peter Selinger 2001-2011
</metadata>
<g transform="translate(0.000000,293.000000) scale(0.100000,-0.100000)"
fill="#fefbfb" stroke="none">
<path d="M1265 2918 c-230 -54 -299 -81 -435 -169 -253 -164 -431 -444 -474
-749 -6 -45 -7 -45 -65 -62 -72 -21 -150 -89 -189 -162 -25 -48 -27 -60 -27
-176 0 -116 2 -128 27 -176 34 -65 115 -138 175 -158 32 -11 82 -16 159 -16
l113 0 42 -78 c56 -101 130 -223 212 -349 37 -57 67 -105 67 -107 0 -3 -116
-6 -257 -8 -295 -5 -320 -10 -401 -83 -73 -65 -105 -145 -105 -255 0 -71 4
-96 25 -141 36 -78 80 -124 156 -161 l67 -33 531 0 532 0 27 25 c34 32 199
242 327 419 l99 136 327 5 327 5 53 29 c65 36 107 82 141 156 23 49 26 67 26
170 0 105 -3 120 -28 171 -15 31 -48 76 -73 99 -67 61 -119 81 -234 87 l-97 6
35 76 c98 213 133 384 113 555 -21 181 -50 243 -101 216 -24 -13 -25 -37 -6
-122 23 -100 29 -206 17 -288 -48 -307 -349 -833 -846 -1478 -60 -78 -112
-142 -116 -142 -18 0 -329 415 -486 649 -209 310 -366 602 -440 816 -37 108
-38 112 -37 255 1 113 6 162 22 221 48 177 128 316 256 445 188 187 419 283
684 284 135 0 235 -19 357 -67 205 -81 364 -219 487 -422 29 -48 42 -61 61
-61 31 0 51 24 44 53 -14 54 -129 207 -225 298 -159 151 -312 230 -533 275
-126 25 -258 30 -334 12z m-915 -1102 c0 -89 40 -217 148 -468 2 -5 -34 -8
-80 -8 -99 0 -147 19 -199 77 -50 55 -62 98 -57 202 5 112 34 167 111 211 70
40 77 39 77 -14z m2170 -591 c48 -24 88 -63 113 -110 29 -54 31 -198 4 -267
-22 -56 -84 -114 -138 -128 -22 -6 -146 -9 -298 -8 l-260 3 85 130 c47 72 117
186 156 255 39 69 76 131 82 139 16 20 210 10 256 -14z m-1482 -740 c52 -72
134 -181 183 -243 l89 -112 -470 0 c-513 0 -504 -1 -572 59 -91 80 -96 263
-10 354 65 69 104 75 421 74 l264 -2 95 -130z"/>
<path d="M1270 2683 c-164 -27 -334 -118 -456 -245 -101 -104 -159 -202 -204
-344 -41 -128 -37 -405 6 -471 18 -28 59 -30 74 -4 7 14 6 39 -6 88 -22 94
-14 272 16 368 64 203 197 358 385 450 221 108 491 98 702 -26 92 -54 221
-190 270 -284 99 -190 117 -395 52 -588 -136 -398 -568 -606 -961 -460 -141
52 -276 162 -363 295 -47 71 -69 82 -99 52 -20 -19 -20 -27 1 -67 44 -86 159
-209 256 -276 61 -42 173 -92 257 -117 91 -26 328 -26 415 0 257 78 430 223
541 452 108 221 110 476 5 699 -114 244 -308 404 -564 465 -77 19 -252 26
-327 13z"/>
<path d="M846 2254 c-14 -13 -16 -65 -16 -419 l0 -404 22 -15 c20 -14 89 -16
550 -16 318 0 537 4 552 10 l26 10 0 413 c0 308 -3 416 -12 425 -9 9 -147 12
-559 12 -484 0 -549 -2 -563 -16z m264 -234 c0 -147 1 -160 19 -170 28 -15
284 -13 299 2 8 8 12 60 12 170 l0 158 105 0 105 0 0 -345 0 -345 -365 0 -365
0 0 345 0 345 95 0 95 0 0 -160z m240 35 l0 -125 -75 0 -75 0 0 125 0 125 75
0 75 0 0 -125z m545 -220 l0 -340 -75 0 -75 0 -3 343 -2 343 77 -3 78 -3 0
-340z"/>
<path d="M1002 1748 c-15 -15 -15 -51 0 -66 9 -9 87 -12 289 -12 239 0 280 2
293 16 9 8 16 22 16 29 0 7 -7 21 -16 29 -13 14 -54 16 -293 16 -202 0 -280
-3 -289 -12z"/>
<path d="M1008 1619 c-21 -12 -24 -49 -6 -67 9 -9 88 -12 295 -12 l283 0 12
25 c9 21 8 28 -7 45 -17 19 -30 20 -289 20 -165 0 -278 -5 -288 -11z"/>
</g>
</svg>
